<svg xmlns="http://www.w3.org/2000/svg" width="157" height="57" viewBox="0 0 157 57">
  <g id="InEvent_Logo_Registered_White" data-name="InEvent Logo Registered White" transform="translate(3443 -20869.203)">
    <path id="Caminho_54" data-name="Caminho 54" d="M261.994,385.772c-.972-.509-1.018-1.11-.509-1.988,3.146-5.411,6.243-10.776,9.529-16.463,2.081,1.2,4.162,2.359,6.151,3.654.231.139.324,1.018.139,1.387-3.146,5.5-6.292,11.007-9.573,16.7-2.038-1.157-3.841-2.266-5.737-3.284Zm6.169-32.175a4.244,4.244,0,0,0-1.545.312,4.9,4.9,0,0,0-1.9,2.174c-.565.974-1.13,1.949-1.711,2.914l-13.174,22.8c-.624,1.041-1.244,2.087-1.852,3.146-1.618,2.865-1.02,4.9,1.708,6.473,10.682,6.151,21.365,12.345,32.046,18.452a4.605,4.605,0,0,0,2.285.73,3.6,3.6,0,0,0,2.986-2.027c.37-.552.694-1.153,1.018-1.708,1.064-1.9,1.064-2.036-.879-3.146-8.462-4.856-16.878-9.759-25.341-14.614-1.8-1.017-3.561-2.081-5.5-3.191l13.321-23.03c11.052,6.335,21.919,12.625,32.878,18.96.647-1.11,1.249-2.081,1.85-3.1,1.3-2.358.74-4.532-1.618-5.873q-16.42-9.6-32.927-18.96a4.237,4.237,0,0,0-1.545-.312Zm127.149,34.118V390.4a9.166,9.166,0,0,1-2.866.37,3.842,3.842,0,0,1-2.868-1.064,4.257,4.257,0,0,1-1.018-2.96v-6.336h-1.434v-2.312h1.434v-2.543l2.914-1.063V378.1H394.9v2.312h-3.422v5.411a3.287,3.287,0,0,0,.416,1.9,1.762,1.762,0,0,0,1.48.554,3.647,3.647,0,0,0,1.942-.554ZM314.2,390.492V373.517h3.007v16.972l-3.007,0Zm14.335,0V383.32a3.463,3.463,0,0,0-.6-2.312,2.4,2.4,0,0,0-1.989-.74,3.528,3.528,0,0,0-2.45,1.249v8.972h-2.914V378.094h2.081l.555,1.156a4.3,4.3,0,0,1,3.468-1.382,4.561,4.561,0,0,1,3.466,1.337,5.216,5.216,0,0,1,1.295,3.7v7.585l-2.911,0Zm6.2,0V373.517h10.82V376.2h-7.815v3.977h5.595v2.547h-5.595v5.087h7.676v2.682Zm47.4,0V383.32a3.463,3.463,0,0,0-.6-2.312,2.4,2.4,0,0,0-1.988-.74,3.532,3.532,0,0,0-2.45,1.249v8.972h-2.913V378.094h2.081l.556,1.156a4.294,4.294,0,0,1,3.467-1.382,4.559,4.559,0,0,1,3.468,1.341,5.213,5.213,0,0,1,1.294,3.7v7.585Zm-30.012.231-5.6-12.625h3.192l2.959,7.584,3.187-7.588h3.057l-5.735,12.629ZM362.849,383h6.1a2.721,2.721,0,0,0-2.7-2.744,2.888,2.888,0,0,0-.307.015c-1.665,0-2.682.922-3.1,2.724v0Zm-1.479,6.1a6.226,6.226,0,0,1-1.665-4.624,6.561,6.561,0,0,1,1.8-4.764,5.9,5.9,0,0,1,4.346-1.8,6.007,6.007,0,0,1,4.347,1.618,5.436,5.436,0,0,1,1.618,4.115,6.286,6.286,0,0,1-.231,1.528h-8.832a3.27,3.27,0,0,0,1.018,2.312,3.745,3.745,0,0,0,2.543.833,4.018,4.018,0,0,0,3.006-1.018l1.109,2.219a7.116,7.116,0,0,1-4.578,1.249,6.036,6.036,0,0,1-4.485-1.664Zm-76.718,9.613v.006c1.943,1.244,3.931,2.309,6.054,3.509,3.236-5.642,6.472-11.191,9.619-16.741a1.541,1.541,0,0,0-.416-1.434c-1.9-1.248-3.931-2.359-6.012-3.56-1.7,2.9-3.306,5.629-4.913,8.351l-1.007-6.132c-.185-1.521-.416-3.05-.6-4.578a2.251,2.251,0,0,0-.74-1.665c-1.943-1.3-3.977-2.405-6.058-3.608-.971,1.711-1.85,3.189-2.728,4.717L271.19,389.1c-.416.74-.832,1.48.231,2.081,1.943,1.064,3.884,2.22,5.92,3.376,1.619-2.82,3.237-5.549,4.809-8.278l1.018,5.5c.081.5.539,3.5.719,4.73q.035.247.071.5a4.4,4.4,0,0,0,.222.967A1.44,1.44,0,0,0,284.652,398.718Z" transform="translate(-3690.094 20515.607)" fill="#fff" fill-rule="evenodd"/>
    <path id="Caminho_89172" data-name="Caminho 89172" d="M-26.672-55.659a1.371,1.371,0,0,0,.337-.034.472.472,0,0,0,.2-.1.351.351,0,0,0,.1-.168A.845.845,0,0,0-26-56.19a.884.884,0,0,0-.024-.217.315.315,0,0,0-.09-.156.41.41,0,0,0-.182-.092,1.228,1.228,0,0,0-.3-.03h-.427v1.025Zm.076-1.672a1.8,1.8,0,0,1,1.093.267.909.909,0,0,1,.347.766,1.063,1.063,0,0,1-.184.62,1.035,1.035,0,0,1-.57.385.6.6,0,0,1,.15.134,1.223,1.223,0,0,1,.118.182l.722,1.225h-.818a.262.262,0,0,1-.251-.132l-.574-1.049a.3.3,0,0,0-.09-.086.3.3,0,0,0-.15-.03h-.219v1.3h-.858v-3.579Zm.016,4.269a2.384,2.384,0,0,0,.65-.088,2.423,2.423,0,0,0,.58-.247,2.439,2.439,0,0,0,.491-.383,2.343,2.343,0,0,0,.377-.5,2.562,2.562,0,0,0,.241-.59,2.511,2.511,0,0,0,.086-.662,2.556,2.556,0,0,0-.086-.666,2.583,2.583,0,0,0-.241-.6,2.367,2.367,0,0,0-.377-.5,2.458,2.458,0,0,0-.491-.387,2.376,2.376,0,0,0-.58-.249,2.384,2.384,0,0,0-.65-.088,2.341,2.341,0,0,0-.646.088,2.356,2.356,0,0,0-.574.249,2.385,2.385,0,0,0-.485.387,2.442,2.442,0,0,0-.373.5,2.521,2.521,0,0,0-.239.6,2.613,2.613,0,0,0-.084.666,2.522,2.522,0,0,0,.186.969,2.454,2.454,0,0,0,.509.784,2.37,2.37,0,0,0,.762.525A2.338,2.338,0,0,0-26.58-53.062Zm0-5.418a2.89,2.89,0,0,1,.784.106,2.98,2.98,0,0,1,.7.3,2.942,2.942,0,0,1,.6.461,2.942,2.942,0,0,1,.461.6,2.98,2.98,0,0,1,.3.7,2.89,2.89,0,0,1,.106.784,2.875,2.875,0,0,1-.106.78,2.942,2.942,0,0,1-.3.7,2.967,2.967,0,0,1-.461.594,2.942,2.942,0,0,1-.6.461,2.98,2.98,0,0,1-.7.3,2.89,2.89,0,0,1-.784.106,2.868,2.868,0,0,1-.782-.106,2.95,2.95,0,0,1-.7-.3,2.967,2.967,0,0,1-.594-.461,2.967,2.967,0,0,1-.461-.594,2.951,2.951,0,0,1-.3-.7,2.868,2.868,0,0,1-.106-.782,2.89,2.89,0,0,1,.106-.784,2.98,2.98,0,0,1,.3-.7,2.942,2.942,0,0,1,.461-.6,2.967,2.967,0,0,1,.594-.461,2.951,2.951,0,0,1,.7-.3A2.868,2.868,0,0,1-26.58-58.48Z" transform="translate(-3262.368 20948.568)" fill="#fff"/>
  </g>
</svg>
