<svg width="1059" height="103" viewBox="0 0 1059 103" fill="none" xmlns="http://www.w3.org/2000/svg">
<path d="M123.222 75.163L130.394 73.62L133.855 22.499L125.933 21.624V15.244H150.326L162.502 53.729L164.086 61.526L165.963 53.688L177.514 15.244H199.99V21.624L192.192 22.458L196.654 73.621L203.492 75.205V80H178.432V75.205L185.27 73.579L182.476 38.597L182.226 22.75L180.683 28.963L164.67 80.71H160.375L145.656 37.555C145.489 37.138 145.224 36.372 144.864 35.262C144.502 34.15 144.093 32.883 143.634 31.465C143.175 30.048 142.696 28.569 142.196 27.027C141.696 25.484 141.237 24.06 140.82 22.754L140.57 35.515L138.985 73.541L146.783 75.167V80H123.223L123.222 75.163Z" fill="white"/>
<path d="M208.284 57.398C208.284 53.838 208.853 50.519 209.994 47.433C211.134 44.348 212.766 41.67 214.893 39.407C217.02 37.144 219.589 35.348 222.607 34.027C225.623 32.708 229.006 32.034 232.76 32.006C235.735 31.981 238.332 32.375 240.558 33.194C242.782 34.014 244.637 35.182 246.123 36.697C247.609 38.213 248.743 40.048 249.521 42.202C250.299 44.356 250.744 46.754 250.855 49.393C250.911 51.145 250.869 52.682 250.73 53.998C250.589 55.317 250.452 56.52 250.313 57.604H220.417C220.417 57.686 220.424 57.764 220.438 57.833C220.452 57.903 220.459 57.967 220.459 58.021C220.626 60.883 221.105 63.316 221.897 65.318C222.69 67.321 223.732 68.955 225.025 70.218C226.317 71.484 227.811 72.406 229.507 72.989C231.201 73.573 233.009 73.865 234.928 73.865C235.954 73.865 237.046 73.807 238.199 73.698C239.352 73.587 240.493 73.421 241.619 73.198C242.744 72.975 243.835 72.698 244.891 72.364C245.948 72.031 246.919 71.641 247.81 71.197L249.728 75.7C248.783 76.509 247.602 77.25 246.184 77.93C244.766 78.612 243.223 79.188 241.556 79.659C239.888 80.131 238.128 80.493 236.281 80.743C234.432 80.993 232.592 81.102 230.758 81.076C227.171 81.05 223.982 80.477 221.188 79.367C218.395 78.256 216.039 76.684 214.121 74.655C212.203 72.626 210.75 70.159 209.765 67.254C208.777 64.355 208.284 61.068 208.284 57.398ZM239.016 51.688C239.099 50.494 239.155 49.25 239.183 47.957C239.209 46.664 239.134 45.42 238.954 44.227C238.772 43.032 238.439 41.934 237.953 40.933C237.467 39.933 236.751 39.113 235.807 38.473C235.223 38.082 234.541 37.779 233.764 37.556C232.986 37.332 232.096 37.223 231.095 37.223C229.453 37.223 228.016 37.598 226.78 38.349C225.543 39.099 224.493 40.126 223.632 41.434C222.772 42.741 222.082 44.277 221.569 46.04C221.054 47.808 220.714 49.686 220.548 51.688H239.016Z" fill="white"/>
<path d="M259.031 75.246L264.868 74.245V44.015L259.072 40.346V36.26L272.624 32.214L275.168 33.006V40.43C275.585 39.288 276.309 38.22 277.336 37.219C278.364 36.219 279.504 35.35 280.755 34.613C282.006 33.878 283.292 33.294 284.612 32.862C285.932 32.431 287.121 32.216 288.177 32.216C289.12 32.216 289.99 32.251 290.781 32.32C291.574 32.39 292.135 32.495 292.469 32.633V43.81C291.661 43.283 290.599 42.858 289.28 42.539C287.96 42.222 286.604 42.06 285.215 42.06C284.048 42.06 283.02 42.128 282.129 42.268C281.239 42.409 280.447 42.586 279.753 42.81C279.059 43.034 278.468 43.269 277.982 43.519C277.496 43.769 277.086 44.004 276.752 44.228V73.999L287.386 75.25V80H259.032L259.031 75.246Z" fill="white"/>
<path d="M297.851 57.857C297.825 53.912 298.443 50.368 299.706 47.225C300.971 44.082 302.708 41.41 304.918 39.2C307.128 36.99 309.728 35.279 312.715 34.07C315.703 32.861 318.921 32.187 322.368 32.049C323.676 32.024 325.022 32.049 326.413 32.132C327.804 32.215 329.13 32.349 330.393 32.528C331.659 32.71 332.813 32.939 333.855 33.216C334.898 33.494 335.709 33.816 336.293 34.175V46.019H330.289L327.495 39.264C326.661 38.706 325.674 38.331 324.534 38.138C323.393 37.944 322.35 37.846 321.407 37.846C319.795 37.846 318.302 38.194 316.926 38.888C315.549 39.581 314.347 40.605 313.32 41.951C312.292 43.3 311.47 44.98 310.86 46.996C310.249 49.015 309.915 51.326 309.86 53.937C309.776 57.497 310.131 60.534 310.923 63.045C311.716 65.564 312.785 67.626 314.134 69.237C315.484 70.847 317.032 72.03 318.783 72.781C320.534 73.532 322.312 73.907 324.12 73.907C325.288 73.907 326.462 73.831 327.642 73.678C328.824 73.525 329.943 73.324 330.998 73.074C332.053 72.824 333.006 72.532 333.852 72.199C334.7 71.866 335.403 71.504 335.957 71.115L337.833 75.701C336.859 76.535 335.713 77.285 334.395 77.953C333.075 78.62 331.635 79.182 330.08 79.641C328.524 80.098 326.862 80.448 325.099 80.682C323.332 80.916 321.52 81.036 319.659 81.036C316.156 81.036 313.05 80.452 310.34 79.285C307.629 78.118 305.359 76.506 303.524 74.448C301.69 72.389 300.293 69.945 299.334 67.108C298.372 64.279 297.878 61.193 297.851 57.857Z" fill="white"/>
<path d="M344.094 64.863C344.401 63.111 345.095 61.562 346.179 60.215C347.263 58.868 348.582 57.694 350.14 56.694C351.698 55.694 353.419 54.852 355.311 54.173C357.202 53.492 359.09 52.948 360.983 52.547C362.873 52.147 364.708 51.856 366.487 51.672C368.265 51.489 369.823 51.401 371.157 51.401V49.817C371.157 47.623 370.921 45.829 370.449 44.439C369.974 43.047 369.302 41.959 368.427 41.167C367.551 40.375 366.501 39.84 365.281 39.563C364.056 39.287 362.696 39.146 361.195 39.146C359.802 39.146 358.456 39.265 357.149 39.5C355.84 39.736 354.62 40.021 353.479 40.354C352.338 40.688 351.311 41.056 350.394 41.458C349.476 41.86 348.71 42.229 348.1 42.562L345.849 37.267C346.542 36.683 347.537 36.091 348.828 35.496C350.121 34.898 351.615 34.356 353.31 33.87C355.003 33.384 356.854 32.987 358.855 32.682C360.858 32.374 362.926 32.224 365.069 32.224C367.597 32.224 369.962 32.466 372.158 32.953C374.352 33.439 376.259 34.304 377.871 35.538C379.482 36.774 380.748 38.442 381.665 40.541C382.583 42.642 383.041 45.314 383.041 48.566L383 75.254H388.379V78.965C387.768 79.358 387.071 79.69 386.294 79.966C385.517 80.242 384.702 80.466 383.856 80.633C383.005 80.8 382.153 80.918 381.292 80.987C380.431 81.057 379.609 81.091 378.832 81.091C378.305 81.091 377.679 81.042 376.955 80.945C376.232 80.846 375.538 80.638 374.871 80.32C374.203 80.002 373.634 79.527 373.161 78.902C372.687 78.277 372.452 77.437 372.452 76.381V76.006C371.034 77.423 369.283 78.627 367.198 79.612C365.113 80.598 362.584 81.091 359.609 81.091C356.607 81.091 354.035 80.649 351.894 79.757C349.752 78.867 348.038 77.672 346.746 76.171C345.453 74.67 344.591 72.944 344.16 71C343.726 69.047 343.704 67.004 344.094 64.863ZM355.77 66.323C355.77 69.299 356.577 71.411 358.189 72.662C359.799 73.913 362.123 74.431 365.153 74.205C366.346 74.097 367.439 73.767 368.424 73.226C369.41 72.683 370.308 72.092 371.113 71.455C371.113 69.009 371.119 66.575 371.134 64.157C371.15 61.738 371.155 59.306 371.155 56.859C370.155 56.859 369.077 56.917 367.924 57.027C366.773 57.138 365.624 57.334 364.486 57.609C363.344 57.888 362.255 58.263 361.213 58.736C360.17 59.21 359.246 59.794 358.442 60.486C357.633 61.181 356.99 62.007 356.504 62.965C356.013 63.925 355.77 65.044 355.77 66.323Z" fill="white"/>
<path d="M412.186 81.083C409.936 81.083 407.667 80.631 405.391 79.729C403.113 78.827 401.061 77.416 399.242 75.498C397.421 73.58 395.932 71.136 394.78 68.158C393.627 65.184 393.05 61.612 393.05 57.442C393.05 53.714 393.725 50.296 395.072 47.185C396.421 44.073 398.26 41.389 400.596 39.137C402.931 36.886 405.661 35.126 408.788 33.863C411.915 32.6 415.269 31.967 418.858 31.967C419.747 31.967 420.716 32.002 421.776 32.071C422.833 32.14 423.945 32.3 425.112 32.55V20.914L416.019 18.913V14.035L434.578 12.117L436.955 13.159V75.247H442.751V79.125C441.777 79.651 440.332 80.141 438.414 80.584C436.496 81.026 434.268 81.251 431.742 81.251C430.098 81.251 428.747 80.98 427.678 80.438C426.611 79.897 425.919 78.917 425.615 77.5C425.055 77.917 424.386 78.341 423.594 78.771C422.802 79.204 421.849 79.584 420.74 79.917C419.628 80.25 418.363 80.527 416.945 80.751C415.521 80.973 413.938 81.083 412.186 81.083ZM415.646 74.496C416.898 74.69 418.121 74.704 419.316 74.538C420.651 74.455 421.8 74.264 422.777 73.955C423.751 73.647 424.529 73.305 425.112 72.913V39.344C423.385 37.869 420.915 37.133 417.69 37.133C416.995 37.133 416.21 37.232 415.335 37.425C414.46 37.619 413.564 37.975 412.647 38.488C411.727 39.003 410.834 39.682 409.958 40.531C409.083 41.379 408.305 42.456 407.623 43.761C406.942 45.068 406.379 46.623 405.935 48.431C405.491 50.239 405.252 52.349 405.226 54.769C405.169 57.853 405.414 60.564 405.955 62.9C406.498 65.234 407.248 67.214 408.207 68.839C409.166 70.468 410.292 71.752 411.585 72.696C412.873 73.648 414.229 74.245 415.646 74.496Z" fill="white"/>
<path d="M448.797 56.232C448.853 52.203 449.555 48.669 450.902 45.641C452.249 42.612 454.029 40.096 456.239 38.094C458.449 36.09 460.993 34.583 463.87 33.57C466.747 32.557 469.742 32.021 472.855 31.966C476.497 31.941 479.718 32.466 482.529 33.55C485.338 34.634 487.7 36.212 489.618 38.283C491.536 40.353 492.988 42.855 493.972 45.788C494.957 48.724 495.451 52.021 495.451 55.689C495.424 59.775 494.767 63.39 493.491 66.532C492.213 69.674 490.489 72.312 488.32 74.454C486.152 76.597 483.633 78.224 480.773 79.333C477.91 80.443 474.895 81.001 471.722 81.001C467.553 81.001 464.001 80.34 461.072 79.022C458.136 77.703 455.757 75.901 453.922 73.623C452.088 71.346 450.76 68.71 449.943 65.725C449.123 62.73 448.74 59.568 448.797 56.232ZM472.146 75.538C474.256 75.565 476.008 75.063 477.401 74.037C478.792 73.012 479.886 71.619 480.696 69.868C481.503 68.117 482.064 66.065 482.384 63.721C482.702 61.369 482.863 58.874 482.863 56.235C482.863 53.901 482.696 51.608 482.363 49.356C482.029 47.104 481.467 45.086 480.675 43.31C479.883 41.531 478.816 40.091 477.464 38.996C476.114 37.897 474.443 37.335 472.443 37.308C470.299 37.281 468.53 37.751 467.127 38.725C465.725 39.699 464.591 41.011 463.73 42.663C462.872 44.316 462.264 46.243 461.917 48.437C461.569 50.631 461.396 52.956 461.396 55.4C461.396 56.845 461.472 58.347 461.625 59.902C461.777 61.461 462.035 62.982 462.396 64.466C462.757 65.953 463.214 67.364 463.773 68.698C464.331 70.032 465.002 71.207 465.794 72.22C466.586 73.233 467.511 74.038 468.565 74.638C469.616 75.236 470.813 75.538 472.146 75.538Z" fill="white"/>
<path d="M503.129 75.163L509.675 73.662V21.748L503.337 20.873V15.244H548.912L550.162 28.504H543.324L540.281 21.666L521.554 20.958V43.727L534.318 43.394L536.152 37.014H542.281V56.32H536.152L534.318 49.814L521.554 49.564V74.29L542.656 73.248L547.494 64.867L554.166 66.159L552.039 80H503.129V75.163Z" fill="white"/>
<path d="M579.142 81.083C576.89 81.083 574.624 80.631 572.345 79.729C570.07 78.827 568.015 77.416 566.199 75.498C564.377 73.58 562.886 71.136 561.736 68.158C560.584 65.184 560.007 61.612 560.007 57.442C560.007 53.714 560.681 50.296 562.028 47.185C563.375 44.073 565.216 41.389 567.549 39.137C569.885 36.886 572.615 35.126 575.742 33.863C578.869 32.6 582.222 31.967 585.81 31.967C586.701 31.967 587.669 32.002 588.73 32.071C589.787 32.14 590.898 32.3 592.066 32.55V20.914L582.972 18.913V14.035L601.531 12.117L603.907 13.159V75.247H609.704V79.125C608.729 79.651 607.286 80.141 605.368 80.584C603.448 81.026 601.222 81.251 598.695 81.251C597.052 81.251 595.701 80.98 594.631 80.438C593.565 79.897 592.873 78.917 592.568 77.5C592.009 77.917 591.339 78.341 590.547 78.771C589.756 79.204 588.803 79.584 587.693 79.917C586.582 80.25 585.316 80.527 583.898 80.751C582.479 80.973 580.894 81.083 579.142 81.083ZM582.604 74.496C583.857 74.69 585.08 74.704 586.275 74.538C587.611 74.455 588.759 74.264 589.736 73.955C590.709 73.647 591.488 73.305 592.072 72.913V39.344C590.345 37.869 587.875 37.133 584.65 37.133C583.955 37.133 583.17 37.232 582.295 37.425C581.42 37.619 580.524 37.975 579.607 38.488C578.688 39.002 577.794 39.682 576.918 40.531C576.043 41.379 575.266 42.456 574.584 43.761C573.902 45.068 573.34 46.623 572.896 48.431C572.454 50.239 572.213 52.349 572.187 54.769C572.129 57.853 572.375 60.564 572.916 62.9C573.459 65.234 574.209 67.214 575.168 68.839C576.127 70.468 577.254 71.752 578.547 72.696C579.83 73.648 581.185 74.245 582.604 74.496Z" fill="white"/>
<path d="M615.962 75.246L622.218 74.162V44.724L616.714 40.012V36.675L631.099 32.213L633.892 33.172V74.244L640.234 75.245V80H615.963V75.246H615.962ZM626.595 23.833C625.677 23.833 624.786 23.683 623.925 23.375C623.064 23.068 622.3 22.631 621.632 22.062C620.966 21.494 620.429 20.795 620.028 19.977C619.624 19.158 619.423 18.233 619.423 17.205C619.423 16.064 619.673 15.011 620.173 14.036C620.675 13.062 621.335 12.223 622.153 11.515C622.969 10.806 623.887 10.248 624.905 9.84698C625.921 9.44498 626.925 9.24298 627.925 9.24298C629.177 9.24298 630.245 9.42398 631.136 9.78498C632.029 10.146 632.763 10.626 633.347 11.223C633.931 11.82 634.365 12.53 634.64 13.35C634.917 14.168 635.056 15.038 635.056 15.954C635.056 17.148 634.814 18.233 634.327 19.206C633.841 20.181 633.202 21.006 632.409 21.686C631.616 22.369 630.714 22.895 629.698 23.27C628.687 23.645 627.65 23.833 626.595 23.833Z" fill="white"/>
<path d="M651.154 39.845H644.816V35.8C645.757 35.608 646.615 35.418 647.379 35.237C648.145 35.056 648.824 34.848 649.424 34.612C650.02 34.377 650.563 34.091 651.049 33.758C651.533 33.425 651.973 32.982 652.363 32.424C652.695 32.007 653.051 31.423 653.426 30.673C653.801 29.923 654.176 29.089 654.551 28.171C654.926 27.254 655.285 26.281 655.635 25.252C655.985 24.226 656.295 23.209 656.574 22.208H662.328V33.34H676.465V39.847H662.703V57.568C662.703 61.07 662.766 63.881 662.891 65.993C663.016 68.105 663.266 69.73 663.643 70.871C664.018 72.013 664.528 72.765 665.164 73.123C665.803 73.482 666.65 73.665 667.707 73.665C668.318 73.665 669.008 73.615 669.77 73.519C670.538 73.42 671.282 73.295 672.002 73.144C672.725 72.993 673.398 72.812 674.023 72.603C674.648 72.394 675.14 72.179 675.502 71.957L677.295 76.252C676.654 76.946 675.779 77.586 674.668 78.17C673.557 78.753 672.314 79.254 670.939 79.671C669.56 80.088 668.117 80.414 666.599 80.65C665.087 80.883 663.593 81.004 662.12 81.004C660.091 81.004 658.382 80.733 656.991 80.191C655.598 79.648 654.471 78.814 653.614 77.689C652.751 76.564 652.126 75.126 651.737 73.375C651.344 71.624 651.153 69.539 651.153 67.12V39.845H651.154Z" fill="white"/>
<path d="M683.177 56.232C683.236 52.203 683.935 48.669 685.282 45.641C686.632 42.612 688.409 40.096 690.62 38.094C692.829 36.09 695.374 34.583 698.251 33.57C701.128 32.557 704.122 32.021 707.235 31.966C710.878 31.941 714.098 32.466 716.909 33.55C719.718 34.634 722.081 36.212 723.999 38.283C725.917 40.353 727.368 42.855 728.353 45.788C729.339 48.724 729.833 52.021 729.833 55.689C729.806 59.775 729.151 63.39 727.872 66.532C726.595 69.674 724.87 72.312 722.702 74.454C720.534 76.597 718.014 78.224 715.155 79.333C712.294 80.443 709.278 81.001 706.108 81.001C701.938 81.001 698.383 80.34 695.454 79.022C692.522 77.703 690.14 75.901 688.304 73.623C686.47 71.346 685.142 68.71 684.325 65.725C683.505 62.73 683.123 59.568 683.177 56.232ZM706.529 75.538C708.638 75.565 710.39 75.063 711.783 74.037C713.174 73.012 714.267 71.619 715.078 69.868C715.885 68.117 716.445 66.065 716.766 63.721C717.084 61.369 717.246 58.874 717.246 56.235C717.246 53.901 717.08 51.608 716.746 49.356C716.412 47.104 715.85 45.086 715.057 43.31C714.264 41.531 713.198 40.091 711.846 38.996C710.496 37.897 708.826 37.335 706.825 37.308C704.68 37.281 702.911 37.751 701.509 38.725C700.109 39.699 698.972 41.011 698.114 42.663C697.253 44.316 696.645 46.243 696.3 48.437C695.952 50.631 695.78 52.956 695.78 55.4C695.78 56.845 695.852 58.347 696.009 59.902C696.159 61.461 696.417 62.982 696.78 64.466C697.137 65.953 697.596 67.364 698.155 68.698C698.712 70.032 699.384 71.207 700.175 72.22C700.968 73.234 701.892 74.038 702.946 74.638C703.998 75.236 705.195 75.538 706.529 75.538Z" fill="white"/>
<path d="M737.634 75.246L743.472 74.245V44.015L737.675 40.346V36.26L751.228 32.214L753.771 33.006V40.43C754.191 39.288 754.914 38.22 755.943 37.219C756.968 36.219 758.111 35.35 759.361 34.613C760.613 33.878 761.896 33.294 763.216 32.862C764.534 32.431 765.724 32.216 766.78 32.216C767.721 32.216 768.593 32.251 769.384 32.32C770.177 32.39 770.739 32.495 771.073 32.633V43.81C770.262 43.283 769.202 42.858 767.884 42.539C766.566 42.222 765.206 42.06 763.821 42.06C762.653 42.06 761.626 42.128 760.735 42.268C759.842 42.409 759.049 42.586 758.358 42.81C757.663 43.034 757.073 43.269 756.587 43.519C756.101 43.769 755.692 44.004 755.358 44.228V73.999L765.991 75.25V80H737.636L737.634 75.246Z" fill="white"/>
<path d="M776.664 75.246L782.92 74.162V44.724L777.416 40.012V36.675L791.801 32.213L794.596 33.172V74.244L800.934 75.245V80H776.664V75.246V75.246ZM787.298 23.833C786.38 23.833 785.489 23.683 784.628 23.375C783.767 23.068 783.003 22.631 782.335 22.062C781.667 21.493 781.132 20.795 780.73 19.977C780.33 19.158 780.126 18.233 780.126 17.205C780.126 16.064 780.376 15.011 780.876 14.036C781.376 13.062 782.036 12.223 782.855 11.515C783.674 10.807 784.591 10.248 785.609 9.84698C786.623 9.44498 787.629 9.24298 788.629 9.24298C789.881 9.24298 790.949 9.42398 791.84 9.78498C792.733 10.146 793.467 10.626 794.051 11.223C794.635 11.82 795.069 12.53 795.344 13.35C795.619 14.168 795.76 15.038 795.76 15.954C795.76 17.148 795.516 18.233 795.031 19.206C794.545 20.181 793.906 21.006 793.113 21.686C792.32 22.369 791.418 22.895 790.402 23.27C789.386 23.645 788.353 23.833 787.298 23.833Z" fill="white"/>
<path d="M807.06 64.863C807.369 63.111 808.062 61.562 809.146 60.215C810.23 58.868 811.55 57.694 813.109 56.694C814.666 55.694 816.386 54.852 818.281 54.173C820.172 53.493 822.058 52.948 823.951 52.547C825.842 52.147 827.678 51.856 829.455 51.672C831.234 51.489 832.791 51.401 834.125 51.401V49.817C834.125 47.623 833.891 45.829 833.418 44.439C832.943 43.047 832.272 41.959 831.397 41.167C830.522 40.375 829.469 39.84 828.249 39.563C827.026 39.287 825.665 39.146 824.163 39.146C822.772 39.146 821.425 39.265 820.118 39.5C818.807 39.736 817.589 40.021 816.448 40.354C815.305 40.687 814.28 41.056 813.364 41.458C812.446 41.86 811.678 42.229 811.069 42.562L808.819 37.267C809.51 36.683 810.507 36.091 811.798 35.496C813.091 34.898 814.585 34.356 816.28 33.87C817.971 33.384 819.825 32.987 821.825 32.682C823.827 32.374 825.897 32.224 828.038 32.224C830.567 32.224 832.933 32.466 835.128 32.953C837.323 33.44 839.232 34.304 840.841 35.538C842.452 36.774 843.718 38.442 844.636 40.541C845.554 42.642 846.011 45.314 846.011 48.566L845.97 75.254H851.349V78.965C850.74 79.358 850.04 79.69 849.265 79.966C848.49 80.242 847.673 80.466 846.827 80.633C845.975 80.8 845.124 80.918 844.264 80.987C843.405 81.057 842.58 81.091 841.803 81.091C841.278 81.091 840.653 81.042 839.926 80.945C839.203 80.846 838.51 80.638 837.842 80.32C837.174 80.002 836.608 79.527 836.131 78.902C835.658 78.277 835.422 77.437 835.422 76.381V76.006C834.004 77.423 832.254 78.627 830.168 79.612C828.084 80.598 825.555 81.091 822.58 81.091C819.578 81.091 817.006 80.649 814.865 79.757C812.722 78.867 811.01 77.672 809.717 76.171C808.424 74.67 807.563 72.944 807.131 71C806.693 69.047 806.671 67.004 807.06 64.863ZM818.736 66.323C818.736 69.299 819.543 71.411 821.154 72.662C822.763 73.913 825.09 74.431 828.119 74.205C829.312 74.097 830.404 73.767 831.39 73.226C832.376 72.683 833.277 72.092 834.079 71.455C834.079 69.009 834.085 66.575 834.099 64.157C834.117 61.738 834.12 59.306 834.12 56.859C833.12 56.859 832.042 56.917 830.89 57.027C829.74 57.138 828.589 57.334 827.452 57.609C826.311 57.888 825.222 58.263 824.181 58.736C823.138 59.21 822.214 59.794 821.41 60.486C820.603 61.181 819.959 62.007 819.471 62.965C818.978 63.925 818.736 65.044 818.736 66.323Z" fill="white"/>
<path d="M856.056 75.246L861.935 74.204V20.914L855.847 18.913V14.035L871.695 12.117L873.781 12.951V74.163L881.16 75.247V80H856.056V75.246Z" fill="white"/>
<path d="M890.582 74.454C890.582 73.313 890.832 72.262 891.332 71.285C891.832 70.311 892.478 69.465 893.27 68.742C894.065 68.018 894.956 67.456 895.942 67.054C896.926 66.652 897.909 66.45 898.88 66.45C900.103 66.45 901.165 66.631 902.069 66.992C902.967 67.353 903.714 67.846 904.298 68.471C904.882 69.096 905.319 69.821 905.612 70.639C905.903 71.457 906.05 72.34 906.05 73.285C906.05 74.479 905.806 75.556 905.321 76.514C904.835 77.473 904.194 78.291 903.403 78.975C902.61 79.657 901.706 80.176 900.688 80.538C899.674 80.899 898.655 81.08 897.625 81.08C896.734 81.08 895.865 80.934 895.02 80.642C894.172 80.351 893.42 79.917 892.768 79.349C892.118 78.782 891.586 78.082 891.184 77.265C890.783 76.449 890.582 75.512 890.582 74.454Z" fill="white"/>
<path d="M917.851 56.232C917.91 52.203 918.611 48.669 919.956 45.641C921.302 42.612 923.083 40.096 925.294 38.094C927.503 36.09 930.048 34.583 932.925 33.57C935.802 32.557 938.796 32.021 941.909 31.966C945.552 31.941 948.774 32.466 951.583 33.55C954.392 34.634 956.755 36.212 958.673 38.283C960.591 40.353 962.042 42.855 963.028 45.788C964.012 48.724 964.507 52.021 964.507 55.689C964.482 59.775 963.823 63.39 962.546 66.532C961.267 69.674 959.544 72.312 957.374 74.454C955.206 76.597 952.69 78.224 949.827 79.333C946.968 80.443 943.952 81.001 940.782 81.001C936.612 81.001 933.057 80.34 930.13 79.022C927.196 77.703 924.816 75.901 922.982 73.623C921.148 71.346 919.82 68.71 919 65.725C918.177 62.73 917.796 59.568 917.851 56.232ZM941.201 75.538C943.31 75.565 945.066 75.063 946.455 74.037C947.848 73.012 948.943 71.619 949.75 69.868C950.557 68.117 951.119 66.065 951.438 63.721C951.758 61.369 951.918 58.874 951.918 56.235C951.918 53.901 951.75 51.608 951.418 49.356C951.084 47.104 950.522 45.086 949.729 43.31C948.936 41.531 947.87 40.091 946.518 38.996C945.168 37.897 943.497 37.335 941.497 37.308C939.352 37.281 937.583 37.751 936.181 38.725C934.781 39.699 933.644 41.011 932.785 42.663C931.924 44.316 931.318 46.243 930.971 48.437C930.624 50.631 930.451 52.956 930.451 55.4C930.451 56.845 930.523 58.347 930.68 59.902C930.83 61.461 931.088 62.982 931.451 64.466C931.808 65.953 932.267 67.364 932.826 68.698C933.383 70.032 934.055 71.207 934.847 72.22C935.639 73.233 936.564 74.038 937.618 74.638C938.671 75.236 939.867 75.538 941.201 75.538Z" fill="white"/>
<path d="M972.308 75.246L978.146 74.245V44.015L972.349 40.346V36.26L985.904 32.214L988.449 33.006V40.43C988.865 39.288 989.588 38.22 990.617 37.219C991.642 36.219 992.785 35.35 994.035 34.613C995.287 33.878 996.572 33.294 997.89 32.862C999.21 32.431 1000.4 32.216 1001.45 32.216C1002.4 32.216 1003.27 32.251 1004.06 32.32C1004.85 32.39 1005.41 32.495 1005.75 32.633V43.81C1004.94 43.283 1003.88 42.858 1002.56 42.539C1001.24 42.222 999.882 42.06 998.495 42.06C997.327 42.06 996.3 42.128 995.409 42.268C994.516 42.409 993.723 42.586 993.032 42.81C992.339 43.034 991.747 43.269 991.261 43.519C990.779 43.769 990.366 44.004 990.032 44.228V73.999L1000.66 75.25V80H972.31V75.246H972.308Z" fill="white"/>
<path d="M1011.38 89.757C1011.38 88.397 1011.6 87.139 1012.05 85.985C1012.49 84.833 1013.06 83.776 1013.76 82.817C1014.45 81.858 1015.22 81.0159 1016.05 80.2959C1016.88 79.5739 1017.69 78.9619 1018.47 78.4609C1017.33 78.0439 1016.44 77.551 1015.8 76.982C1015.16 76.415 1014.69 75.7939 1014.38 75.1279C1014.07 74.4609 1013.9 73.7679 1013.84 73.0429C1013.78 72.3189 1013.76 71.6 1013.76 70.875C1013.76 70.266 1013.9 69.5479 1014.19 68.7289C1014.48 67.9099 1014.88 67.0609 1015.38 66.1859C1015.88 65.3109 1016.47 64.457 1017.13 63.623C1017.8 62.789 1018.51 62.054 1019.26 61.412C1016.9 60.162 1015.05 58.4789 1013.71 56.3659C1012.38 54.2559 1011.71 51.671 1011.71 48.61C1011.71 45.693 1012.31 43.191 1013.52 41.106C1014.73 39.021 1016.33 37.296 1018.3 35.936C1020.27 34.574 1022.51 33.566 1025.01 32.914C1027.51 32.262 1030.05 31.906 1032.64 31.851C1035.42 31.794 1037.99 32.059 1040.35 32.643C1042.72 33.226 1044.78 34.17 1046.53 35.478C1046.8 35.034 1047.17 34.617 1047.61 34.227C1048.05 33.836 1048.6 33.502 1049.26 33.226C1049.91 32.949 1050.68 32.733 1051.57 32.58C1052.46 32.429 1053.5 32.351 1054.7 32.351H1058.99V40.7739H1050.61C1051.39 42.6659 1051.78 44.792 1051.78 47.154C1051.78 49.963 1051.25 52.415 1050.2 54.513C1049.14 56.612 1047.7 58.364 1045.88 59.767C1044.06 61.169 1041.92 62.2269 1039.46 62.9359C1037 63.6449 1034.36 63.999 1031.56 63.999C1028.61 63.999 1025.97 63.693 1023.64 63.083C1023.41 63.777 1023.25 64.4749 1023.16 65.1679C1023.05 65.8609 1023.01 66.4769 1023.01 67.0019C1023.01 68.6129 1023.48 69.8119 1024.41 70.5879C1025.34 71.3649 1026.76 71.7829 1028.68 71.8389C1029.99 71.8979 1031.47 71.932 1033.14 71.943C1034.81 71.958 1036.73 71.9639 1038.89 71.9639C1042.67 71.9639 1045.77 72.29 1048.17 72.943C1050.58 73.596 1052.46 74.5209 1053.82 75.7139C1055.18 76.9099 1056.12 78.326 1056.63 79.967C1057.14 81.61 1057.4 83.4029 1057.4 85.3479C1057.4 87.739 1056.85 89.953 1055.76 91.996C1054.66 94.039 1053.05 95.809 1050.92 97.311C1048.79 98.813 1046.16 99.994 1043.02 100.856C1039.87 101.714 1036.28 102.149 1032.22 102.149C1029.3 102.149 1026.57 101.932 1024.03 101.503C1021.48 101.07 1019.27 100.361 1017.4 99.377C1015.52 98.392 1014.04 97.109 1012.97 95.541C1011.91 93.961 1011.38 92.036 1011.38 89.757ZM1021.8 86.2959C1021.8 88.0469 1022.12 89.557 1022.76 90.819C1023.4 92.085 1024.28 93.1269 1025.41 93.9459C1026.53 94.7659 1027.85 95.371 1029.35 95.76C1030.85 96.149 1032.47 96.34 1034.22 96.34C1036.25 96.34 1038.06 96.201 1039.65 95.925C1041.23 95.647 1042.56 95.1819 1043.65 94.5289C1044.73 93.8749 1045.56 93.0199 1046.13 91.9649C1046.7 90.9079 1046.98 89.6039 1046.98 88.0459C1046.98 86.9619 1046.89 85.9359 1046.71 84.9599C1046.53 83.9849 1046.08 83.126 1045.36 82.375C1044.63 81.624 1043.57 81.024 1042.15 80.582C1040.73 80.139 1038.79 79.915 1036.35 79.915L1029.89 79.873C1028.64 79.873 1027.48 79.8519 1026.43 79.8099C1025.37 79.7669 1024.4 79.691 1023.51 79.581C1023.03 80.307 1022.63 81.1849 1022.3 82.2269C1021.97 83.2729 1021.8 84.6279 1021.8 86.2959ZM1032.64 58.275C1034.15 58.275 1035.41 58.011 1036.42 57.482C1037.43 56.956 1038.25 56.232 1038.88 55.314C1039.5 54.398 1039.95 53.306 1040.21 52.043C1040.48 50.778 1040.61 49.409 1040.61 47.938C1040.61 44.326 1039.86 41.6 1038.36 39.765C1036.85 37.931 1034.63 37.013 1031.68 37.013C1030.6 37.013 1029.55 37.164 1028.55 37.472C1027.55 37.778 1026.66 38.285 1025.89 38.993C1025.11 39.701 1024.49 40.633 1024.03 41.786C1023.57 42.939 1023.34 44.3639 1023.34 46.0589C1023.34 47.7269 1023.49 49.296 1023.8 50.77C1024.11 52.246 1024.62 53.539 1025.34 54.649C1026.07 55.759 1027.03 56.643 1028.22 57.295C1029.42 57.949 1030.89 58.275 1032.64 58.275Z" fill="white"/>
<path d="M18 0H0V80H18V0Z" fill="white"/>
<path d="M42 20H25V80H42V20Z" fill="white"/>
<path d="M66 0H48V80H66V0Z" fill="white"/>
<path d="M91 21H73V56H91V21Z" fill="white"/>
<path d="M91 63H73V80H91V63Z" fill="white"/>
</svg>
